<svg xmlns="http://www.w3.org/2000/svg" viewBox="0 0 56 48" shape-rendering="crispEdges"><title>01-mint-couch</title><rect x="7" y="42" width="42" height="2" fill="#0b1223"/><rect x="10" y="44" width="36" height="1" fill="#0b1223"/><rect x="10" y="17" width="36" height="17" fill="#0a1021"/><rect x="11" y="18" width="34" height="15" fill="#247d83"/><rect x="12" y="18" width="32" height="2" fill="#a1f2d7"/><rect x="12" y="20" width="16" height="11" fill="#0a1021"/><rect x="13" y="21" width="14" height="9" fill="#57d8bf"/><rect x="13" y="21" width="13" height="1" fill="#a1f2d7"/><rect x="12" y="31" width="16" height="6" fill="#0a1021"/><rect x="13" y="32" width="14" height="4" fill="#57d8bf"/><rect x="13" y="32" width="13" height="1" fill="#a1f2d7"/><rect x="28" y="20" width="16" height="11" fill="#0a1021"/><rect x="29" y="21" width="14" height="9" fill="#57d8bf"/><rect x="29" y="21" width="13" height="1" fill="#a1f2d7"/><rect x="28" y="31" width="16" height="6" fill="#0a1021"/><rect x="29" y="32" width="14" height="4" fill="#57d8bf"/><rect x="29" y="32" width="13" height="1" fill="#a1f2d7"/><rect x="6" y="27" width="7" height="12" fill="#0a1021"/><rect x="7" y="28" width="5" height="10" fill="#247d83"/><rect x="7" y="28" width="5" height="2" fill="#57d8bf"/><rect x="43" y="27" width="7" height="12" fill="#0a1021"/><rect x="44" y="28" width="5" height="10" fill="#247d83"/><rect x="44" y="28" width="5" height="2" fill="#57d8bf"/><rect x="10" y="39" width="4" height="4" fill="#987845"/><rect x="42" y="39" width="4" height="4" fill="#987845"/><rect x="15" y="23" width="8" height="7" fill="#0a1021"/><rect x="16" y="24" width="6" height="5" fill="#9873d8"/><rect x="16" y="24" width="6" height="1" fill="#d5b6ff"/><rect x="8" y="37" width="40" height="2" fill="#247d83"/></svg>
