<svg xmlns="http://www.w3.org/2000/svg" viewBox="0 0 56 48" shape-rendering="crispEdges"><title>13-leafy-plant</title><rect x="15" y="44" width="29" height="2" fill="#0b1223"/><rect x="18" y="46" width="23" height="1" fill="#0b1223"/><rect x="19" y="32" width="18" height="4" fill="#0a1021"/><rect x="20" y="33" width="16" height="2" fill="#9873d8"/><rect x="21" y="36" width="14" height="9" fill="#0a1021"/><rect x="22" y="37" width="12" height="7" fill="#9873d8"/><rect x="23" y="37" width="2" height="6" fill="#d5b6ff"/><rect x="32" y="36" width="2" height="8" fill="#55427f"/><rect x="27" y="13" width="2" height="20" fill="#247d83"/><polygon points="27,25 19,23 15,15 21,14 27,20" fill="#0a1021"/><polygon points="27,26 19,24 15,16 21,15" fill="#57d8bf"/><polygon points="28,20 32,12 39,10 40,16 33,22" fill="#0a1021"/><polygon points="28,21 32,13 39,11 40,17" fill="#a1f2d7"/><polygon points="27,16 23,10 25,4 29,6 31,13" fill="#0a1021"/><polygon points="27,17 23,11 25,5 29,7" fill="#57d8bf"/><rect x="20" y="17" width="1" height="5" fill="#247d83"/><rect x="33" y="15" width="1" height="5" fill="#247d83"/></svg>
