<svg xmlns="http://www.w3.org/2000/svg" viewBox="0 0 56 48" shape-rendering="crispEdges"><title>17-drawer-cabinet</title><rect x="9" y="44" width="38" height="2" fill="#0b1223"/><rect x="12" y="46" width="32" height="1" fill="#0b1223"/><rect x="10" y="15" width="37" height="28" fill="#0a1021"/><rect x="11" y="16" width="35" height="26" fill="#33435f"/><rect x="11" y="16" width="35" height="2" fill="#42516f"/><rect x="13" y="20" width="31" height="10" fill="#0a1021"/><rect x="14" y="21" width="29" height="8" fill="#42516f"/><rect x="15" y="22" width="27" height="1" fill="#58647f"/><rect x="25" y="24" width="8" height="3" fill="#0a1021"/><rect x="26" y="25" width="6" height="1" fill="#987845"/><rect x="13" y="30" width="31" height="10" fill="#0a1021"/><rect x="14" y="31" width="29" height="8" fill="#42516f"/><rect x="15" y="32" width="27" height="1" fill="#58647f"/><rect x="25" y="34" width="8" height="3" fill="#0a1021"/><rect x="26" y="35" width="6" height="1" fill="#987845"/><rect x="13" y="43" width="3" height="3" fill="#0a1021"/><rect x="41" y="43" width="3" height="3" fill="#0a1021"/></svg>
