<svg xmlns="http://www.w3.org/2000/svg" viewBox="0 0 56 48" shape-rendering="crispEdges"><title>21-basketball-hoop</title><rect x="11" y="43" width="35" height="2" fill="#0b1223"/><rect x="14" y="45" width="29" height="1" fill="#0b1223"/><rect x="10" y="5" width="35" height="18" fill="#0a1021"/><rect x="11" y="6" width="33" height="16" fill="#d7e6ed"/><rect x="13" y="8" width="29" height="12" fill="#0a1021"/><rect x="14" y="9" width="27" height="10" fill="#647f9b"/><rect x="22" y="11" width="12" height="9" fill="#0a1021"/><rect x="23" y="12" width="10" height="7" fill="#d7e6ed"/><rect x="20" y="20" width="16" height="4" fill="#0a1021"/><rect x="21" y="21" width="14" height="2" fill="#e78a57"/><rect x="28" y="24" width="3" height="18" fill="#42516f"/><rect x="20" y="42" width="20" height="3" fill="#0a1021"/><rect x="21" y="43" width="18" height="1" fill="#33435f"/><rect x="22" y="24" width="1" height="2" fill="#d7e6ed"/><rect x="33" y="24" width="1" height="2" fill="#d7e6ed"/><rect x="23" y="26" width="1" height="2" fill="#d7e6ed"/><rect x="32" y="26" width="1" height="2" fill="#d7e6ed"/><rect x="24" y="28" width="1" height="2" fill="#d7e6ed"/><rect x="31" y="28" width="1" height="2" fill="#d7e6ed"/><rect x="25" y="30" width="1" height="2" fill="#d7e6ed"/><rect x="30" y="30" width="1" height="2" fill="#d7e6ed"/><rect x="26" y="31" width="5" height="1" fill="#d7e6ed"/><polygon points="8,33 14,33 18,37 18,41 14,45 8,45 4,41 4,37" fill="#0a1021"/><polygon points="8,34 14,34 17,37 17,41 14,44 8,44 5,41 5,37" fill="#ec9759"/><rect x="10" y="34" width="1" height="11" fill="#987845"/><rect x="5" y="39" width="13" height="1" fill="#987845"/></svg>
